<svg width="32" height="32" viewBox="0 0 32 32" fill="none" xmlns="http://www.w3.org/2000/svg">
<path fill-rule="evenodd" clip-rule="evenodd" d="M23 13.5C23 18.1944 19.1944 22 14.5 22C9.80558 22 6 18.1944 6 13.5C6 8.80558 9.80558 5 14.5 5C19.1944 5 23 8.80558 23 13.5ZM20.3239 22.2381C18.6573 23.3511 16.6545 24 14.5 24C8.70101 24 4 19.299 4 13.5C4 7.70101 8.70101 3 14.5 3C20.299 3 25 7.70101 25 13.5C25 16.4213 23.807 19.064 21.8816 20.9674L28.2071 27.2929C28.5976 27.6834 28.5976 28.3166 28.2071 28.7071C27.8166 29.0976 27.1834 29.0976 26.7929 28.7071L20.3239 22.2381Z" fill="#1B2529"/>
</svg>
